HIERARCHY
ROOT Hips
{
  OFFSET -331.093 83.8371 -317.828
  CHANNELS 6 Xposition Yposition Zposition Zrotation Xrotation Yrotation
  JOINT LeftUpLeg
  {
    OFFSET 8.64259 1.95398 -2.38835
    CHANNELS 3 Zrotation Xrotation Yrotation
    JOINT LeftLeg
    {
      OFFSET 43.7702 0 0
      CHANNELS 3 Zrotation Xrotation Yrotation
      JOINT LeftFoot
      {
        OFFSET 40.6238 0 0
        CHANNELS 3 Zrotation Xrotation Yrotation
        JOINT LeftToeBase
        {
          OFFSET 12.7242 0 0
          CHANNELS 3 Zrotation Xrotation Yrotation
          End Site
          {
            OFFSET 0 0 0
          }
        }
      }
    }
  }
  JOINT RightUpLeg
  {
    OFFSET -8.2249 1.95398 -2.59336
    CHANNELS 3 Zrotation Xrotation Yrotation
    JOINT RightLeg
    {
      OFFSET 43.5653 0 0
      CHANNELS 3 Zrotation Xrotation Yrotation
      JOINT RightFoot
      {
        OFFSET 40.6238 0 0
        CHANNELS 3 Zrotation Xrotation Yrotation
        JOINT RightToeBase
        {
          OFFSET 12.7242 0 0
          CHANNELS 3 Zrotation Xrotation Yrotation
          End Site
          {
            OFFSET 0 0 0
          }
        }
      }
    }
  }
  JOINT Spine
  {
    OFFSET 0.165834 0.87714 6.61349
    CHANNELS 3 Zrotation Xrotation Yrotation
    JOINT Spine1
    {
      OFFSET 7.38963 1.71661e-005 0
      CHANNELS 3 Zrotation Xrotation Yrotation
      JOINT Spine2
      {
        OFFSET 11.9445 1.14441e-005 0
        CHANNELS 3 Zrotation Xrotation Yrotation
        JOINT Spine3
        {
          OFFSET 14.7254 4.19617e-005 0
          CHANNELS 3 Zrotation Xrotation Yrotation
          JOINT Spine4
          {
            OFFSET 10.9679 0 0
            CHANNELS 3 Zrotation Xrotation Yrotation
            JOINT RightShoulder
            {
              OFFSET 2.46616 -1.6653 3.69651
              CHANNELS 3 Zrotation Xrotation Yrotation
              JOINT RightArm
              {
                OFFSET 13.0012 0 0
                CHANNELS 3 Zrotation Xrotation Yrotation
                JOINT RightForeArm
                {
                  OFFSET 28.7848 1.62311e-005 0
                  CHANNELS 3 Zrotation Xrotation Yrotation
                  JOINT RightHand
                  {
                    OFFSET 26.5688 1.62095e-005 0
                    CHANNELS 3 Zrotation Xrotation Yrotation
                    End Site
                    {
                      OFFSET 0 0 0
                    }
                  }
                }
              }
            }
            JOINT LeftShoulder
            {
              OFFSET 2.38034 -1.29275 -3.7523
              CHANNELS 3 Zrotation Xrotation Yrotation
              JOINT LeftArm
              {
                OFFSET 16.3182 6.07031e-005 0
                CHANNELS 3 Zrotation Xrotation Yrotation
                JOINT LeftForeArm
                {
                  OFFSET 27.0901 0 0
                  CHANNELS 3 Zrotation Xrotation Yrotation
                  JOINT LeftHand
                  {
                    OFFSET 24.5451 1.51738e-005 0
                    CHANNELS 3 Zrotation Xrotation Yrotation
                    End Site
                    {
                      OFFSET 0 0 0
                    }
                  }
                }
              }
            }
            JOINT Neck
            {
              OFFSET 5.0226 -0.0266342 0
              CHANNELS 3 Zrotation Xrotation Yrotation
              JOINT Head
              {
                OFFSET 6.69364 2.86102e-005 0
                CHANNELS 3 Zrotation Xrotation Yrotation
                End Site
                {
                  OFFSET 0 0 0
                }
              }
            }
          }
        }
      }
    }
  }
}
MOTION
Frames:	12
Frame Time:	0.0416667
-185.019 98.3445 -196.784 87.3857 -33.8435 89.4544 -174.809 9.58377 90.6775 -15.4394 6.41758 -1.4912 65.4179 3.48273 3.92728 28.3472 -0.170833 0.705059 174.203 6.97051 93.0662 -11.824 -4.22557 -1.82472 65.0484 -2.46579 -1.36909 28.2409 -0.542981 -4.86973 -0.111115 6.17793 -90.1747 14.5175 -0.306124 -0.307387 2.84659 -0.319336 -0.293623 -19.6884 -0.199624 -0.385181 0.324228 -0.199589 -0.38518 93.115 -40.5998 -97.5063 29.4548 -12.1274 8.57298 11.479 -1.3924 -94.3029 0.526343 0.170651 -0.818554 -96.4949 -49.9495 69.6085 -23.2478 10.4126 13.0183 -17.9545 -7.17351 -97.104 16.5899 1.27397 3.78702 2.97418 -2.17511 2.23907 -10.1961 -2.33681 -2.59241 
-184.99 98.3254 -196.893 86.853 -35.276 89.5955 -174.645 10.2425 91.0876 -16.0807 4.40667 -1.45382 65.9901 2.84864 2.68744 28.1571 -0.2305 1.09607 174.938 6.602 93.7459 -10.0679 -4.41889 -2.11824 64.627 -2.70481 -1.46477 27.6436 -0.452545 -4.38057 0.070921 6.13076 -90.2209 14.6123 0.0312848 -0.448317 2.94125 0.0115608 -0.44927 -19.5934 0.164594 -0.418186 0.419288 0.164578 -0.41819 93.0286 -40.6889 -97.635 29.4311 -12.9822 8.41165 15.1247 -0.266606 -94.8346 -5.0735 -0.0470905 -2.04575 -96.7095 -50.0333 69.3227 -23.1514 10.7241 13.1706 -19.4029 -7.16635 -97.0711 14.6867 0.870064 2.04152 4.04095 -1.42505 1.15258 -13.0097 -1.51835 -0.960232 
-184.649 98.3746 -196.59 87.1655 -37.0052 90.8758 -173.845 9.93064 92.4236 -16.7514 3.55937 -1.65401 66.7672 2.77983 2.4729 28.1696 -0.179997 1.28979 175.896 4.88585 94.8906 -7.73109 -5.34217 -2.38574 63.7099 -2.74575 -1.44898 27.1198 -0.582424 -5.89682 0.284085 6.14782 -90.3382 14.5791 0.395557 -0.735874 2.90794 0.362801 -0.752575 -19.6265 0.598422 -0.582981 0.386111 0.598425 -0.582979 93.0869 -40.7115 -97.5298 29.9501 -15.5133 8.39093 26.0058 3.97918 -96.1099 -11.6993 -0.417244 -0.604711 -96.729 -50.0162 69.2887 -23.496 11.0806 13.2272 -20.8783 -7.16408 -97.4223 16.4269 1.02661 2.36789 3.92836 -1.1669 1.04316 -13.9191 -1.25318 -0.803298 
-184.147 98.4195 -196.134 87.7623 -39.3198 92.8427 -172.743 9.36403 94.3446 -17.5584 2.73372 -1.93113 67.8297 2.98442 2.77843 28.278 -0.22109 0.713175 177.06 4.15077 96.6426 -7.8949 -6.26407 -2.63356 63.7962 -2.69988 -1.41971 27.592 -0.603672 -5.79466 0.57645 6.20374 -90.5284 14.4703 0.881197 -1.18605 2.79905 0.828161 -1.22368 -19.7359 1.1969 -0.866401 0.276761 1.19688 -0.866404 93.2314 -40.6223 -97.3005 29.9415 -15.1902 8.41369 25.6002 3.66211 -96.4406 -11.1058 -0.392877 -0.627751 -96.7395 -50.1189 69.3063 -23.5226 11.2011 13.0416 -21.4759 -7.07982 -97.5841 16.8463 1.05508 2.3882 4.03765 -1.13121 1.17382 -14.4449 -1.23888 -0.804049 
-183.58 98.4673 -195.588 88.7332 -41.6928 95.5488 -171.332 8.63881 96.8984 -18.2815 2.33194 -2.36184 68.8107 2.98977 2.63915 28.8185 0.282608 1.16262 178.495 3.00055 98.8249 -7.90821 -7.36213 -2.92628 64.5277 -2.96088 -1.54875 26.7844 -0.55515 -5.86331 0.871073 6.26091 -90.7494 14.3608 1.35682 -1.69463 2.68938 1.28096 -1.7527 -19.8463 1.80334 -1.20854 0.166304 1.80336 -1.20855 93.18 -40.427 -97.4322 30.3294 -14.95 8.60198 24.8319 3.33283 -96.4452 -10.9372 -0.39297 -0.527867 -96.6481 -49.9902 69.3982 -23.4902 10.74 13.5679 -19.8103 -6.93362 -97.7366 14.9901 0.962269 2.51713 4.0645 -1.15301 1.10273 -14.6805 -1.25569 -0.722808 
-182.975 98.4432 -195.01 90.0185 -43.8314 98.4233 -170.11 8.08224 99.3065 -19.8236 1.2726 -2.61248 70.4744 2.89017 2.13131 28.6148 0.160731 1.30912 179.706 1.85684 100.858 -7.91142 -7.84211 -3.00636 64.1939 -2.74128 -1.43348 27.0536 -0.511863 -5.26198 1.13824 6.33797 -90.9686 14.2127 1.77997 -2.18943 2.54104 1.6819 -2.26562 -19.9954 2.35561 -1.55333 0.0172093 2.35561 -1.55333 93.196 -40.4744 -97.394 30.2344 -15.0673 8.48819 24.8361 3.43176 -96.0108 -11.1593 -0.31137 -1.39648 -96.7366 -50.0085 69.2752 -23.4159 11.0517 13.3192 -20.3122 -7.08236 -97.6244 16.1296 1.09851 2.92158 4.00792 -1.12187 1.24426 -14.9808 -1.23438 -0.837092 
-182.399 98.3768 -194.461 91.3186 -45.5373 101.243 -168.926 7.55093 101.644 -20.9684 1.0175 -2.97517 71.756 3.08983 2.24076 28.754 0.218271 1.09189 -178.985 0.716371 102.843 -7.91897 -8.57727 -3.24216 64.8242 -2.9941 -1.55871 26.9062 -0.516313 -5.40016 1.3529 6.40192 -91.1714 14.0912 2.10772 -2.63767 2.41907 1.98965 -2.72782 -20.1174 2.80286 -1.88241 -0.104777 2.80287 -1.8824 93.022 -40.9014 -97.5993 29.6529 -15.0776 8.52091 24.7309 3.49428 -96.0675 -10.9467 -0.319916 -1.21274 -96.4259 -49.8076 69.6644 -23.6234 11.2505 13.3492 -20.0675 -7.23226 -97.5161 15.7283 1.10848 3.13886 3.87761 -1.10274 1.1732 -15.5654 -1.20572 -0.773455 
-181.886 98.2761 -193.945 92.7435 -46.6311 104.031 -167.841 7.17396 103.9 -22.2394 1.09917 -3.31658 72.9083 3.29914 2.2944 29.195 0.444698 0.618153 -177.837 -0.407817 104.677 -7.87056 -8.68265 -3.38535 64.891 -2.98269 -1.55013 27.2573 -0.513582 -5.1618 1.51546 6.46154 -91.3683 13.9772 2.33544 -3.05901 2.30449 2.19861 -3.15874 -20.2304 3.14658 -2.21597 -0.217778 3.14658 -2.21597 93.0447 -41.0353 -97.5307 29.5567 -15.1387 8.66386 25.0867 3.51707 -96.4036 -11.1214 -0.397397 -0.588326 -96.7217 -49.9396 69.2747 -23.2163 10.9437 13.21 -19.3152 -7.26985 -97.1281 14.8428 0.9969 2.80896 3.24243 -1.13609 0.898471 -16.1006 -1.25749 -0.179499 
-181.477 98.2557 -193.536 93.8997 -47.3073 106.164 -167.043 6.7178 105.555 -22.923 1.2254 -3.52636 73.6942 3.39885 2.09876 29.3034 0.6724 1.26384 -177.023 -1.23273 106.013 -7.87844 -8.87234 -3.43678 64.9885 -3.01538 -1.56645 27.3766 -0.555345 -5.47906 1.63475 6.53193 -91.5261 13.8405 2.49732 -3.39158 2.16728 2.34574 -3.49809 -20.3658 3.40088 -2.48466 -0.353094 3.40087 -2.48467 93.1596 -40.9539 -97.3515 29.5701 -14.5621 8.62186 25.178 3.475 -96.2562 -10.428 -0.316386 -0.983439 -96.5548 -49.7691 69.4638 -23.6001 11.4424 12.6847 -20.276 -7.3276 -97.2747 16.2714 1.17576 3.33278 2.37579 -0.980831 1.06197 -16.2297 -1.13094 -0.120454 
-181.304 98.1916 -193.359 94.4881 -47.7714 107.173 -166.495 6.51702 106.4 -23.2007 1.48049 -3.82939 74.1124 3.68499 2.24265 29.2263 0.505475 0.784749 -176.307 -1.56953 106.749 -8.00177 -9.06932 -3.76534 65.6193 -3.37701 -1.73784 27.3918 -0.565962 -5.57065 1.69007 6.57408 -91.5906 13.7582 2.57714 -3.52805 2.08475 2.41946 -3.63792 -20.4477 3.51795 -2.5909 -0.435027 3.51796 -2.5909 93.0763 -40.9747 -97.4899 29.4656 -14.6084 8.41171 25.0087 3.48316 -96.291 -10.5185 -0.360896 -0.599431 -96.5752 -49.8713 69.4667 -23.1403 11.2977 12.3387 -18.9197 -7.36095 -97.0762 14.8769 1.05472 3.17001 2.10518 -0.821532 1.08197 -19.6433 -0.984152 -0.0271277 
-181.45 98.2125 -193.439 94.4468 -47.9063 106.816 -166.533 6.48415 106.041 -23.1225 1.27816 -3.82393 74.0841 3.76746 2.13593 28.9533 0.298412 0.776856 -176.117 -1.20025 106.605 -8.29701 -8.89174 -3.98171 65.2757 -3.37508 -1.72171 27.8812 -0.590945 -5.49382 1.65753 6.65302 -91.5325 13.5988 2.54366 -3.40061 1.9256 2.39163 -3.50915 -20.6082 3.44776 -2.47933 -0.595534 3.44777 -2.47933 92.9523 -40.8016 -97.7413 29.0167 -14.9756 7.28114 25.0814 3.6862 -96.0782 -10.8707 -0.37693 -0.582255 -96.4627 -49.8329 69.6186 -22.0811 11.3581 11.2745 -19.6654 -7.44227 -96.6035 14.7393 0.992831 2.82997 0.729556 -0.471288 1.61118 -23.3694 -0.591234 -0.617668 
-182.047 98.215 -193.913 93.5535 -47.7038 104.623 -167.665 6.98629 103.938 -23.0795 0.493331 -3.26431 73.226 3.25475 1.89896 29.501 0.893166 1.57053 -176.684 -0.119686 105.184 -8.61001 -8.56672 -4.08832 64.4304 -3.22464 -1.62602 28.0868 -0.576266 -5.24786 1.54899 6.79956 -91.3139 13.3013 2.43937 -2.93787 1.62912 2.30778 -3.04231 -20.9093 3.20933 -2.06906 -0.896673 3.20933 -2.06906 92.5632 -41.0936 -98.3422 27.8963 -16.4415 5.05967 31.6092 6.16061 -97.5954 -13.1615 -1.04035 3.13102 -96.4762 -49.8065 69.5905 -20.2516 11.251 9.07547 -20.0338 -7.66186 -95.5607 14.9044 0.969469 2.60429 -1.78421 -0.134749 1.9515 -26.0238 -0.203705 -0.821077 
